# xmcd CD database file
#
# Track frame offsets:
#	150
#	9240
#	22211
#	36991
#	45801
#	58445
#	70977
#	81249
#	90635
#	103073
#	112445
#
# Disc length: 1718 seconds
#
# Revision: 0
# Processed by: cddbd v1.5.2PL0 Copyright (c) Steve Scherf et al.
# Submitted via: CDex 1.51
#
DISCID=9706b40b
DTITLE=Chris Isaak - Beyond The Sun CD2
DYEAR=2011
DGENRE=Country
TTITLE0=My Baby Left Me
TTITLE1=Oh, Pretty Woman
TTITLE2=Doin' The Best I Can
TTITLE3=Your True Love
TTITLE4=Crazy Arms
TTITLE5=Lovely Loretta
TTITLE6=Everybody's In The Mood
TTITLE7=I'm Gonna Sit Right Down And Cry
TTITLE8=Love Me
TTITLE9=Doncha' Think It's Time
TTITLE10=That Lucky Old Sun
EXTD=YEAR: 2011
EXTT0=
EXTT1=
EXTT2=
EXTT3=
EXTT4=
EXTT5=
EXTT6=
EXTT7=
EXTT8=
EXTT9=
EXTT10=
PLAYORDER=
